<?xml version="1.0" encoding="utf-8"?>
<!-- Generator: Adobe Illustrator 19.0.0, SVG Export Plug-In . SVG Version: 6.00 Build 0)  -->
<svg version="1.1" id="圖層_1" xmlns="http://www.w3.org/2000/svg" xmlns:xlink="http://www.w3.org/1999/xlink" x="0px" y="0px"
	 viewBox="-10 10 25 25" style="enable-background:new -10 10 25 25;" xml:space="preserve">
<style type="text/css">
	.st0{fill:#FFFFFF;}
</style>
<path class="st0" d="M10.7,29.6l-7.1-7.1l7.1-7.1c0.3-0.3,0.2-0.7-0.1-1c-0.3-0.2-0.7-0.2-1,0l-7.2,7.2l-7.2-7.2
	c-0.1-0.1-0.3-0.2-0.5-0.2c0,0,0,0,0,0c-0.2,0-0.4,0.1-0.5,0.2c-0.3,0.3-0.3,0.7,0,1l7.1,7.1l-7.1,7.1c-0.1,0.1-0.2,0.3-0.2,0.5
	s0.1,0.4,0.2,0.5c0.3,0.2,0.7,0.2,0.9,0l7.2-7.2l7.2,7.2c0.1,0.1,0.3,0.2,0.5,0.2c0.2,0,0.4-0.1,0.5-0.2l0,0
	C11,30.3,11,29.9,10.7,29.6z"/>
</svg>
